<mxfile host="app.diagrams.net" modified="2023-10-06T05:48:53.592Z" agent="Mozilla/5.0 (Windows NT 10.0; Win64; x64; rv:109.0) Gecko/20100101 Firefox/118.0" version="22.0.3" etag="vLFz0b8IhL9copN4XEHZ" type="github">
  <diagram name="1 oldal" id="GkW5v6QdE8gthZvtDdKc">
    <mxGraphModel>
      <root>
        <mxCell id="0" />
        <mxCell id="1" parent="0" />
      </root>
    </mxGraphModel>
  </diagram>
</mxfile>
